<svg xmlns="http://www.w3.org/2000/svg" viewBox="0 0 197.71 197.8"><defs><style>.cls-1{fill:#fff;}</style></defs><g id="Layer_2" data-name="Layer 2"><g id="Ñëîé_1" data-name="Ñëîé 1"><path class="cls-1" d="M0,98.91V16.43C0,5.18,5.22,0,16.5,0H181c11.58,0,16.7,5.08,16.71,16.67q0,82.48,0,165c0,10.78-5.07,16.09-15.75,16.1q-83,.09-166,0c-11.13,0-16-5.11-16-16.35q0-41.24,0-82.49ZM76.88,169c8.77,0,16.93-.18,25.06.09,3.89.13,5.22-1,5.17-5-.21-14.82-.13-29.64,0-44.46a42.73,42.73,0,0,1,1-9.38c2.06-8.82,8.23-12.93,17.76-12.2,7.27.57,11.88,5.66,12.71,14.18.22,2.31.2,4.66.2,7,0,15,.08,30-.07,45,0,3.54.85,5.19,4.75,4.9,4.31-.31,8.66-.07,13-.07,12.81,0,12.93,0,12.77-12.63-.23-18.46.41-37-1.28-55.36C165.75,78.07,150.11,69.31,128,71.85c-9.06,1-16.33,5.72-22.31,14,0-3-.18-4.85,0-6.64.5-4.27-1-6-5.53-5.77a149.91,149.91,0,0,1-17.48,0c-4.67-.27-6.33,1.12-6.29,6.09.24,28,.12,56,.15,83.93C76.6,165,76.76,166.66,76.88,169Zm-48.32,0c9.68,0,18.49-.06,27.3,0,2.91,0,3.17-1.65,3.17-3.86,0-29-.06-58,0-87,0-3.87-1.67-4.83-5.16-4.73-6.5.19-13,.28-19.5,0-4.5-.2-6,1.21-6,5.91.22,26.49.1,53,.1,79.49Zm-2-124.89A17.15,17.15,0,0,0,43.38,61.47,17.44,17.44,0,0,0,61.16,44.33,17.79,17.79,0,0,0,43.85,26.55,17.3,17.3,0,0,0,26.52,44.08Z"/></g></g></svg>