<svg xmlns="http://www.w3.org/2000/svg" viewBox="0 0 25.94 25.29"><defs><style>.cls-1{fill:#fff;}</style></defs><g id="Layer_2" data-name="Layer 2"><g id="Ñëîé_1" data-name="Ñëîé 1"><path class="cls-1" d="M15.34,18.7c.57-.12,1.09-.21,1.59-.33a5.24,5.24,0,0,0,4.26-5.16A5.57,5.57,0,0,0,20,8.92a.39.39,0,0,1,0-.32,5.15,5.15,0,0,0-.07-2.86.46.46,0,0,0-.58-.37,5.34,5.34,0,0,0-2.38.92,1.74,1.74,0,0,1-1.49.26,11.92,11.92,0,0,0-5.38.07,1.11,1.11,0,0,1-.66-.11c-.77-.34-1.51-.76-2.3-1s-1-.16-1.17.68A4.88,4.88,0,0,0,6,8.58.48.48,0,0,1,5.9,9a5.65,5.65,0,0,0-1.09,4.66,5.35,5.35,0,0,0,1.78,3.59A6.73,6.73,0,0,0,10,18.59l.45.08c-.22.55-.41,1.08-.64,1.6a.51.51,0,0,1-.27.25,2.71,2.71,0,0,1-3.48-1,5.68,5.68,0,0,0-1-1.08,1.54,1.54,0,0,0-.77-.31,2.79,2.79,0,0,0-.8.1,2.7,2.7,0,0,0,.45.59,3.32,3.32,0,0,1,1.26,1.54,3.24,3.24,0,0,0,3.73,2l.82-.12v1.85c0,1.25-.27,1.46-1.42,1A12.63,12.63,0,0,1,.2,15.11,13,13,0,1,1,18,24.9a8.11,8.11,0,0,1-.82.31c-.64.23-1,0-1-.71,0-1,0-2.07,0-3.1A3.67,3.67,0,0,0,15.34,18.7Z"/></g></g></svg>