<svg xmlns="http://www.w3.org/2000/svg" viewBox="0 0 575.84 623.94"><defs><style>.cls-1{fill:#fff;}</style></defs><g id="Layer_2" data-name="Layer 2"><g id="Ñëîé_1" data-name="Ñëîé 1"><path class="cls-1" d="M.05,286.8c0-71.66-.15-143.33.07-215C.21,41.13,14.83,19.23,42.31,5.94A62.88,62.88,0,0,1,70,.05q23,0,46,0,144.5,0,289,0c31.05,0,53.41,14.24,66.91,42.16,4.34,9,6,18.67,6,28.63q0,44.25,0,88.5v167.5c0,6.94,0,7-6.89,7q-16,0-32,0c-6.84,0-6.86,0-6.86-7q0-126.49,0-253c0-11.78-4.54-20.78-15.47-25.68a28,28,0,0,0-11.13-2.26q-166.5-.16-333-.06c-15.82,0-26.69,10.95-26.69,26.84q-.06,214.24,0,428.49c0,16.3,11,26.91,27.64,26.92q102.24,0,204.49,0c7.85,0,7.86,0,7.86,8q0,15.24,0,30.5c0,7.23,0,7.25-7.11,7.25H110.21c-12.33,0-24.66,0-37,0-42.92-.16-73.1-30.19-73.15-73Q-.06,393.79.05,286.8Z"/><path class="cls-1" d="M188,190.16c-17-2.26-30.35-10.13-38.58-25.29a45,45,0,0,1-4.48-31.05c4.67-23.27,24.33-38.48,48.36-37.72A46.58,46.58,0,0,1,237.38,136c1.83,13.46-1.25,25.87-10,36.55-8.53,10.44-19.79,16-33.21,17.48l.05,1.26a26.33,26.33,0,0,0,3.75.93c47,4.91,80.44,36.91,87.27,83.62.08.49.16,1,.21,1.48.85,8.26.63,8.52-7.54,8.52h-174c-8.12,0-8.25-.15-7.59-8,3.59-42.27,37.42-78.22,79.6-84.58,3.89-.58,7.8-1.06,11.7-1.59Z"/><path class="cls-1" d="M575.84,507.79c-2.29,2.44-3.46,3.77-4.71,5q-53.71,53.75-107.45,107.46c-4.88,4.88-4.9,4.88-9.69.09L346.54,512.9c-1.26-1.27-2.46-2.61-4.82-5.11h86.55c7.42,0,7.64-.21,7.64-7.51q0-64.72,0-129.46c0-7,0-7,6.83-7,10.83,0,21.67.23,32.49-.11,5.07-.16,6.56,1.49,6.54,6.54-.18,43.15-.11,86.31-.1,129.47,0,8,.06,8.1,8,8.1h86.12Z"/><path class="cls-1" d="M239,336.05H374.94c6.87,0,6.88,0,6.89,7,0,11-.14,22,.07,33,.08,4.21-1.12,5.89-5.62,5.88q-137.43-.15-274.84,0c-4.16,0-5.52-1.44-5.46-5.53.2-11.49.27-23,0-34.48-.12-4.76,1.74-5.89,6.15-5.88Q170.56,336.16,239,336.05Z"/><path class="cls-1" d="M190.87,477.82c-29.47,0-59-.11-88.42.1-5.08,0-6.65-1.53-6.5-6.56.32-11.14.24-22.31,0-33.46-.08-4.19,1.07-5.92,5.6-5.91q89.42.18,178.84,0c4.15,0,5.54,1.42,5.47,5.52-.2,11.49-.26,23,0,34.47.12,4.72-1.68,5.93-6.12,5.91C250.15,477.75,220.51,477.82,190.87,477.82Z"/><path class="cls-1" d="M381.82,166.5c0,6.15-.09,12.31,0,18.45.07,3.28-1,4.9-4.55,4.87-12.3-.12-24.6-.1-36.91,0-3.26,0-4.37-1.43-4.35-4.53q.12-18.45,0-36.91c0-3.27,1.43-4.37,4.54-4.35q18.45.12,36.9,0c3.27,0,4.41,1.43,4.35,4.54C381.74,154.53,381.82,160.52,381.82,166.5Z"/><path class="cls-1" d="M359.44,240.06c6,0,12,.08,18,0,3.18-.06,4.47,1.24,4.45,4.44q-.12,18.45,0,36.9c0,3.18-1.25,4.48-4.44,4.46q-18.45-.13-36.9,0c-3.18,0-4.48-1.25-4.46-4.44q.13-18.45,0-36.91c0-3.18,1.25-4.5,4.44-4.45C346.81,240.14,353.13,240.06,359.44,240.06Z"/></g></g></svg>